# xmcd CD database file
#
# Track frame offsets:
#	150
#	21236
#	37583
#	64579
#	90404
#	110857
#	134051
#	153576
#	176160
#	197426
#	219970
#	251901
#	275552
#
# Disc length: 3946 seconds
#
# Revision: 1
# Processed by: cddbd v1.5.2PL0 Copyright (c) Steve Scherf et al.
# Submitted via: Feurio! 1.68 - http://www.feurio.com
#
DISCID=b90f680d
DTITLE=Jonny Lang - Fight for my soul
DYEAR=1900
DGENRE=
TTITLE0=Blew up (the house)
TTITLE1=Breakin' in
TTITLE2=We are the same
TTITLE3=What you're looking for
TTITLE4=Not right
TTITLE5=The truth
TTITLE6=River
TTITLE7=Fight for my soul
TTITLE8=All of a sudden
TTITLE9=Seasons
TTITLE10=I'll always be
TTITLE11=Breakin' me (acoustic)
TTITLE12=Never should have lied (acoustic)
EXTD=
EXTT0=
EXTT1=
EXTT2=
EXTT3=
EXTT4=
EXTT5=
EXTT6=
EXTT7=
EXTT8=
EXTT9=
EXTT10=
EXTT11=
EXTT12=
PLAYORDER=
